<?xml version="1.0" encoding="UTF-8" standalone="no"?>
<svg
   viewBox="0 -100 1000 1000"
   id="svg2"
   version="1.1"
   inkscape:version="1.3.2 (091e20e, 2023-11-25, custom)"
   width="100%"
   height="100%"
   sodipodi:docname="bp.svg"
   xmlns:inkscape="http://www.inkscape.org/namespaces/inkscape"
   xmlns:sodipodi="http://sodipodi.sourceforge.net/DTD/sodipodi-0.dtd"
   xmlns="http://www.w3.org/2000/svg"
   xmlns:svg="http://www.w3.org/2000/svg"
   xmlns:rdf="http://www.w3.org/1999/02/22-rdf-syntax-ns#"
   xmlns:cc="http://creativecommons.org/ns#"
   xmlns:dc="http://purl.org/dc/elements/1.1/">
  <metadata
     id="metadata12">
    <rdf:RDF>
      <cc:Work
         rdf:about="">
        <dc:format>image/svg+xml</dc:format>
        <dc:type
           rdf:resource="http://purl.org/dc/dcmitype/StillImage" />
      </cc:Work>
    </rdf:RDF>
  </metadata>
  <defs
     id="defs10" />
  <sodipodi:namedview
     pagecolor="#ffffff"
     bordercolor="#666666"
     borderopacity="1"
     objecttolerance="10"
     gridtolerance="10"
     guidetolerance="10"
     inkscape:pageopacity="0"
     inkscape:pageshadow="2"
     inkscape:window-width="2400"
     inkscape:window-height="1261"
     id="namedview8"
     showgrid="false"
     inkscape:zoom="10.680141"
     inkscape:cx="485.38686"
     inkscape:cy="501.53833"
     inkscape:window-x="2391"
     inkscape:window-y="-9"
     inkscape:window-maximized="1"
     inkscape:current-layer="svg2"
     inkscape:showpageshadow="2"
     inkscape:pagecheckerboard="0"
     inkscape:deskcolor="#d1d1d1" />
  <g
     transform="matrix(0.05708,0,0,-0.05708,471.40292,416.4105)"
     id="g4">
    <path
       d="m 257,0 -3,20 -1,19 c 0,28 5.33333,51.333333 16,70 6,10.66667 11.83333,19.5 17.5,26.5 5.66667,7 12.5,14.16667 20.5,21.5 l 6,5 7,5 c 13.33333,10.66667 26.5,19 39.5,25 13,6 20.16667,10.33333 21.5,13 l -1,7 v 8 l 3,28 9,28 c 10,22 23.83333,40.83333 41.5,56.5 17.66667,15.66667 36.83333,25.5 57.5,29.5 l 5,1 h 5 l 7.07249,0.0149 L 515,362 c 18,-4 35.66667,-14 53,-30 17.33333,-16 31,-34.66667 41,-56 l 7,-21 4,-21 1,-7 v -7 -8 l -1,-7 21,-13 c 12,-5.33333 26.33333,-14.33333 43,-27 l 5,-4 6,-4 c 13.33333,-11.33333 25.66667,-27 37,-47 11.33333,-20 17,-44 17,-72 L 748,19 745,0 Z m 176,547 c 18.66667,18.66667 41.33333,28 68,28 26,0 48.33333,-9.33333 67,-28 18.66667,-18.66667 28,-41 28,-67 0,-26 -9.33333,-48.33333 -28,-67 -18.66667,-18.66667 -41,-28 -67,-28 -26,0 -48.33333,9.16667 -67,27.5 -18.66667,18.33333 -28,40.83333 -28,67.5 0,25.33333 9,47.66667 27,67 z"
       id="path6"
       inkscape:connector-curvature="0"
       fill="#000000"
       sodipodi:nodetypes="ccccscccscccccscccccscccccccccccscccccsssssssc" />
  </g>
</svg>
